<svg id="图层_1" data-name="图层 1" xmlns="http://www.w3.org/2000/svg" viewBox="0 0 184.92 236.79"><defs><style>.cls-1,.cls-6{fill:#fff;}.cls-1,.cls-2,.cls-3,.cls-4,.cls-5,.cls-6,.cls-7,.cls-8{stroke:#000;stroke-miterlimit:10;}.cls-1{stroke-width:4.92px;}.cls-2,.cls-4{stroke-width:1.09px;}.cls-3,.cls-4{fill:none;}.cls-3,.cls-6{stroke-width:0.85px;}.cls-5{stroke-width:0.83px;}.cls-7{stroke-width:1.09px;}.cls-8{stroke-width:0.43px;}</style></defs><path class="cls-1" d="M218,34.34V156.76c0,.61,0,1.21,0,1.81-.69,32.7-20,61-48,75.32a92.76,92.76,0,0,1-83.95,0c-28-14.31-47.23-42.47-48-75.07q0-.87,0-1.74V34.34C38,22,48.3,12.07,61,12.07H195C207.7,12.07,218,22,218,34.34Z" transform="translate(-35.54 -9.61)"/><path class="cls-2" d="M90.11,43.26a32,32,0,1,0,32,32A32,32,0,0,0,90.11,43.26Zm0,57a25,25,0,1,1,25-25A25,25,0,0,1,90.11,100.26Z" transform="translate(-35.54 -9.61)"/><circle class="cls-3" cx="54.57" cy="65.65" r="25"/><circle class="cls-4" cx="129.01" cy="65.65" r="25"/><path class="cls-2" d="M184.55,43.26h-40a12,12,0,0,0-12,12v20a32,32,0,0,0,64,0v-20A12,12,0,0,0,184.55,43.26Zm-20,57a25,25,0,1,1,25-25A25,25,0,0,1,164.55,100.26Z" transform="translate(-35.54 -9.61)"/><path class="cls-5" d="M156.43,127.71,134.2,153.87a8.14,8.14,0,0,1-12.4,0L99.57,127.71a8.13,8.13,0,0,1,6.2-13.4h44.46A8.13,8.13,0,0,1,156.43,127.71Z" transform="translate(-35.54 -9.61)"/><path class="cls-6" d="M38.22,159.7a22.67,22.67,0,0,1-.22-3.21c0-.36,0-.71,0-1.06,0,.36,0,.71,0,1.06C38.08,157.57,38.14,158.64,38.22,159.7Z" transform="translate(-35.54 -9.61)"/><path class="cls-6" d="M38.22,159.7a22.67,22.67,0,0,1-.22-3.21h.06C38.08,157.57,38.14,158.64,38.22,159.7Z" transform="translate(-35.54 -9.61)"/><path class="cls-6" d="M170.6,232.82l.3-.16-.28.16Z" transform="translate(-35.54 -9.61)"/><path class="cls-6" d="M183.56,224.33q3.41-2.69,6.53-5.66A79.5,79.5,0,0,1,183.56,224.33Z" transform="translate(-35.54 -9.61)"/><path class="cls-6" d="M190.09,218.67c.53-.5,1-1,1.55-1.51C191.15,217.68,190.62,218.19,190.09,218.67Z" transform="translate(-35.54 -9.61)"/><path class="cls-6" d="M195.39,213.18a90,90,0,0,0,18.17-31.65A89.55,89.55,0,0,1,195.39,213.18Z" transform="translate(-35.54 -9.61)"/><path class="cls-6" d="M214.12,179.75q.81-2.69,1.47-5.43Q214.95,177.07,214.12,179.75Z" transform="translate(-35.54 -9.61)"/><path class="cls-6" d="M218,155.43c0,.36,0,.71,0,1.06,0,1.08-.08,2.15-.16,3.21l0,.37c.11-1.64.19-3.3.21-5C218,155.22,218,155.32,218,155.43Z" transform="translate(-35.54 -9.61)"/><path class="cls-7" d="M217.77,155c0,.22,0,.44,0,.66,0,2-.14,3.91-.31,5.83,0,.22,0,.44,0,.66,0,.4-.08.8-.13,1.19a.61.61,0,0,1,0,.14l-.18,1.55c-.06.47-.12,1-.19,1.42l-.21,1.41a90.07,90.07,0,0,1-46.92,65.56c-.6.32-1.21.63-1.82.93V156.49A24.94,24.94,0,0,1,217.77,155Z" transform="translate(-35.54 -9.61)"/><path class="cls-7" d="M38.22,155c0,.22,0,.44,0,.66,0,2,.14,3.91.31,5.83,0,.22,0,.44.05.66,0,.4.08.8.13,1.19a.61.61,0,0,0,0,.14l.18,1.55c.06.47.12,1,.19,1.42l.21,1.41a90.07,90.07,0,0,0,46.92,65.56c.6.32,1.21.63,1.82.93V156.49A24.94,24.94,0,0,0,38.22,155Z" transform="translate(-35.54 -9.61)"/><circle class="cls-8" cx="54.57" cy="65.65" r="19.83"/><circle class="cls-8" cx="129.01" cy="65.65" r="19.83"/></svg>