<?xml version="1.0" encoding="utf-8"?>
<!-- Generator: Adobe Illustrator 24.2.3, SVG Export Plug-In . SVG Version: 6.00 Build 0)  -->
<svg version="1.1" id="图层_1" xmlns="http://www.w3.org/2000/svg" xmlns:xlink="http://www.w3.org/1999/xlink" x="0px" y="0px"
	 viewBox="0 0 256 256" style="enable-background:new 0 0 256 256;" xml:space="preserve">
<style type="text/css">
	.st0{stroke:#000000;stroke-width:1.0923;stroke-miterlimit:10;}
	.st1{fill:none;stroke:#000000;stroke-width:0.8534;stroke-miterlimit:10;}
	.st2{fill:none;stroke:#000000;stroke-width:1.0923;stroke-miterlimit:10;}
	.st3{stroke:#000000;stroke-width:0.8279;stroke-miterlimit:10;}
	.st4{fill:#FFFFFF;stroke:#000000;stroke-width:0.8534;stroke-miterlimit:10;}
	.st5{fill:none;stroke:#000000;stroke-width:4.9208;stroke-miterlimit:10;}
	.st6{stroke:#000000;stroke-width:1.0944;stroke-miterlimit:10;}
	.st7{stroke:#000000;stroke-width:0.4331;stroke-miterlimit:10;}
</style>
<g>
	<path class="st0" d="M90.11,50.26c-17.67,0-32,14.33-32,32c0,17.68,14.33,32,32,32s32-14.32,32-32
		C122.11,64.59,107.78,50.26,90.11,50.26z M90.11,107.26c-13.81,0-25-11.19-25-25c0-13.8,11.19-25,25-25s25,11.2,25,25
		C115.11,96.07,103.92,107.26,90.11,107.26z"/>
	<circle class="st1" cx="90.11" cy="82.26" r="25"/>
	<circle class="st2" cx="164.55" cy="82.26" r="25"/>
	<path class="st0" d="M184.55,50.26h-40c-6.63,0-12,5.38-12,12v20c0,17.68,14.32,32,32,32c17.67,0,32-14.32,32-32v-20
		C196.55,55.64,191.18,50.26,184.55,50.26z M164.55,107.26c-13.81,0-25-11.19-25-25c0-13.8,11.19-25,25-25s25,11.2,25,25
		C189.55,96.07,178.36,107.26,164.55,107.26z"/>
	<path class="st3" d="M156.43,134.71l-22.23,26.16c-3.25,3.82-9.15,3.82-12.4,0l-22.23-26.16c-4.49-5.29-0.73-13.4,6.2-13.4h44.46
		C157.16,121.31,160.92,129.42,156.43,134.71z"/>
	<path class="st4" d="M38.22,166.7c-0.15-1.05-0.22-2.12-0.22-3.21c0-0.36,0.01-0.71,0.02-1.06c0.01,0.36,0.02,0.71,0.04,1.06
		C38.08,164.57,38.14,165.64,38.22,166.7z"/>
	<path class="st4" d="M38.22,166.7c-0.15-1.05-0.22-2.12-0.22-3.21h0.06C38.08,164.57,38.14,165.64,38.22,166.7z"/>
	<path class="st4" d="M170.6,239.82c0.1-0.05,0.2-0.11,0.3-0.16c-0.09,0.06-0.19,0.11-0.28,0.16H170.6z"/>
	<path class="st4" d="M183.56,231.33c2.27-1.79,4.45-3.67,6.53-5.66C188.01,227.68,185.83,229.57,183.56,231.33z"/>
	<path class="st4" d="M190.09,225.67c0.53-0.5,1.04-1,1.55-1.51C191.15,224.68,190.62,225.19,190.09,225.67z"/>
	<path class="st4" d="M195.39,220.18c8.05-9.09,14.3-19.83,18.17-31.65C209.7,200.35,203.46,211.09,195.39,220.18z"/>
	<path class="st4" d="M214.12,186.75c0.54-1.79,1.03-3.6,1.47-5.43C215.16,183.15,214.67,184.96,214.12,186.75z"/>
	<path class="st4" d="M218,162.43c-0.01,0.36-0.02,0.71-0.04,1.06c-0.02,1.08-0.08,2.15-0.16,3.21c-0.01,0.13-0.02,0.25-0.03,0.37
		c0.11-1.64,0.19-3.3,0.21-4.96C217.99,162.22,218,162.32,218,162.43z"/>
	<path class="st5" d="M218,41.34v122.42c0,0.61-0.01,1.21-0.02,1.81c-0.69,32.7-19.96,60.97-48,75.32
		c-12.53,6.41-26.81,10.04-41.98,10.04c-15.16,0-29.44-3.63-41.97-10.04c-27.98-14.31-47.23-42.47-48-75.07
		c-0.02-0.57-0.03-1.15-0.03-1.73V41.34c0-12.3,10.3-22.28,23-22.28h134C207.7,19.07,218,29.04,218,41.34z"/>
	<path class="st6" d="M217.77,161.95c0,0.22-0.01,0.44-0.01,0.66c-0.04,1.96-0.14,3.91-0.31,5.83c-0.01,0.22-0.03,0.44-0.05,0.66
		c-0.04,0.4-0.08,0.8-0.13,1.19c0,0.05,0,0.1-0.01,0.14c-0.06,0.52-0.12,1.04-0.18,1.55c-0.06,0.47-0.12,0.95-0.19,1.42
		c-0.07,0.47-0.14,0.95-0.21,1.41c-4.47,28.5-22.32,52.57-46.92,65.56c-0.6,0.32-1.21,0.63-1.82,0.93v-77.81
		c0-13.77,11.17-24.94,24.94-24.94C206.13,138.55,216.97,148.89,217.77,161.95z"/>
	<path class="st6" d="M38.22,161.95c0,0.22,0.01,0.44,0.01,0.66c0.04,1.96,0.14,3.91,0.31,5.83c0.01,0.22,0.03,0.44,0.05,0.66
		c0.04,0.4,0.08,0.8,0.13,1.19c0,0.05,0,0.1,0.01,0.14c0.06,0.52,0.12,1.04,0.18,1.55c0.06,0.47,0.12,0.95,0.19,1.42
		c0.07,0.47,0.14,0.95,0.21,1.41c4.47,28.5,22.32,52.57,46.92,65.56c0.6,0.32,1.21,0.63,1.82,0.93v-77.81
		c0-13.77-11.17-24.94-24.94-24.94C49.86,138.55,39.02,148.89,38.22,161.95z"/>
	<circle class="st7" cx="90.11" cy="82.26" r="19.83"/>
	<circle class="st7" cx="164.55" cy="82.26" r="19.83"/>
</g>
</svg>
